<svg width="96" height="96" viewBox="0 0 96 96" fill="none" xmlns="http://www.w3.org/2000/svg">
<g id="Icon / 96 / success">
<g id="Union">
<path d="M63.7926 30.1041C62.8386 29.1492 61.6199 28.4498 60.2213 28.5774C58.8228 28.7049 57.7507 29.6132 56.9851 30.7249C56.2521 31.7894 55.6908 33.1857 55.2858 34.7659L57.9099 35.4048C58.2663 34.0249 58.7203 32.9666 59.2093 32.2565C59.7329 31.4961 60.1777 31.2931 60.4666 31.2667C60.7555 31.2404 61.2297 31.3596 61.8822 32.0128C62.4916 32.6226 63.1295 33.5814 63.7297 34.874L66.1949 33.7711C65.5107 32.2902 64.7062 31.0184 63.7926 30.1041Z" fill="white"/>
<path d="M47.0683 30.0244C48.4669 29.8968 49.6856 30.5962 50.6396 31.5511C51.5531 32.4654 52.3577 33.7372 53.0419 35.218L50.5766 36.321C49.9764 35.0284 49.3385 34.0696 48.7292 33.4598C48.0766 32.8066 47.6025 32.6874 47.3135 32.7137C47.0246 32.7401 46.5799 32.9431 46.0562 33.7035C45.5672 34.4136 45.1133 35.4718 44.7568 36.8518L42.1327 36.2129C42.5378 34.6327 43.099 33.2364 43.8321 32.1719C44.5976 31.0602 45.6697 30.1519 47.0683 30.0244Z" fill="white"/>
<path d="M55.4707 50.1789C59.5564 49.8063 62.6104 46.312 64.4044 41.7465L61.8804 40.7859C60.2294 44.9758 57.7773 47.2568 55.2254 47.4895C52.6735 47.7222 49.8493 45.9224 47.4677 42.1003L45.1591 43.5016C47.7493 47.6673 51.385 50.5515 55.4707 50.1789Z" fill="white"/>
<path fill-rule="evenodd" clip-rule="evenodd" d="M80.8737 58.1795C81.0509 55.3537 80.6596 52.3977 80.2005 49.8461C82.9724 48.0331 86.2396 45.3594 88.4496 41.7968C90.8846 37.8715 92.0114 32.8952 89.854 26.9751L87.5051 27.8311C89.3701 32.9486 88.4041 37.1276 86.3252 40.4789C84.5942 43.2694 82.0755 45.5032 79.7059 47.1625L78.0726 38.3135C77.4181 34.7668 76.5441 30.8765 75.1362 27.3083C74.2905 25.1649 73.9909 22.6525 73.6678 19.7014L73.6379 19.4284C73.3424 16.7238 72.9989 13.5807 71.884 10.8244C71.3528 9.51115 69.9541 8.77025 68.5693 9.06844C58.7986 11.1724 49.4364 12.8017 39.8615 14.4679L39.8594 14.4682C35.0009 15.3137 30.0875 16.1687 25.0469 17.0989C24.9089 17.1244 24.6692 17.1609 24.3011 17.2167L23.9586 17.2688L22.2312 17.5559L20.4326 17.9865L19.3444 18.4781C19.1421 18.6055 18.78 18.8586 18.4593 19.2817C18.112 19.7398 17.7242 20.5325 17.8637 21.5409C17.926 21.9911 17.972 22.4657 18.0254 23.0181L18.0653 23.4275C18.1335 24.1186 18.2187 24.9102 18.3639 25.697L23.4711 53.3717C20.5931 53.1694 17.3434 52.6324 14.8005 51.5383C11.5858 50.1553 8.64544 47.8714 7.35435 44.2596L5.00023 45.1012C6.57405 49.5039 10.1077 52.2409 13.8125 53.8348C16.8798 55.1545 20.665 55.7256 23.9171 55.9045L23.9524 56.1286C24.0143 56.5208 24.0754 56.9214 24.1376 57.3286L24.1382 57.3323C24.6661 60.7918 25.2665 64.726 26.9954 68.044C27.3572 68.7383 27.8688 69.545 28.6004 70.1747C29.3868 70.8513 30.6023 71.4494 32.0872 71.1754C34.3936 70.7498 36.6866 70.2673 38.9385 69.7935L38.9395 69.7933L38.9419 69.7928L38.943 69.7925L38.9519 69.7906L38.9538 69.7996L38.9681 69.7966C41.2033 69.3263 43.3997 68.8643 45.6012 68.4562L43.3399 82.7778C42.9901 84.9932 44.7024 86.997 46.9452 86.997H58.5366V84.497H46.9452C46.2386 84.497 45.6991 83.8657 45.8093 83.1677L48.2081 67.9751L52.6381 67.1576C54.669 66.7828 56.6435 66.2146 58.4612 65.6912L59.224 65.472L62.5029 64.7278L68.3847 77.2267C69.2386 79.0411 71.3962 79.8269 73.2169 78.9866L86.6539 72.7849L85.6063 70.515L72.1692 76.7167C71.5956 76.9815 70.9158 76.7339 70.6468 76.1622L64.9992 64.1612L65.1421 64.1288C65.9502 64.0287 66.7884 63.9387 67.6544 63.8457L67.6572 63.8453L67.68 63.843C69.5861 63.6384 71.6232 63.4198 73.6066 63.0537L76.796 62.4651C77.1557 62.3987 77.5919 62.3104 78.01 62.1717C78.4391 62.0294 79.0244 61.7793 79.5628 61.2869C80.7353 60.2144 80.8355 58.7868 80.8737 58.1795ZM69.5664 11.7618C69.491 11.5753 69.2923 11.47 69.0955 11.5124C59.2726 13.6276 49.866 15.2645 40.3016 16.9289L40.2901 16.9309C35.4291 17.7767 30.5274 18.6297 25.5006 19.5574C25.3175 19.5912 25.0367 19.6338 24.703 19.6843L24.7011 19.6846L24.6757 19.6885L21.2071 20.3635C21.0128 20.4268 20.8223 20.5021 20.6758 20.5941C20.604 20.6394 20.5187 20.7034 20.4515 20.792C20.3773 20.8898 20.3169 21.0307 20.3401 21.1982C20.4101 21.7044 20.4606 22.2265 20.5124 22.7631L20.5532 23.182C20.6206 23.8653 20.6977 24.5677 20.8223 25.2433L26.2699 54.7623C26.3084 54.971 26.3623 55.3127 26.4273 55.7246L26.4307 55.7466L26.4226 55.7478C26.8138 58.6194 27.8293 64.6707 28.8006 66.1668C29.0189 66.5029 29.2004 66.8089 29.3628 67.0827C30.1072 68.3375 30.4498 68.9149 32.0872 68.6199C33.6829 68.3324 36.9888 67.6489 38.4422 67.3431L38.4441 67.3521L38.4526 67.3503C40.7184 66.8736 42.9797 66.3978 45.2522 65.9784L52.1844 64.6991C54.0851 64.3483 55.9529 63.8118 57.7962 63.2811L58.5365 63.0684C60.6269 62.4708 62.6989 61.9126 64.8346 61.6478L67.3766 61.3612L67.3907 61.3596C69.3195 61.1527 71.2703 60.9427 73.1529 60.5953L76.3424 60.0066C76.6827 59.9438 76.9772 59.8803 77.2229 59.7988C77.4698 59.7169 77.6931 59.609 77.8754 59.4422C78.2551 59.095 78.3424 58.599 78.3786 58.023C78.5439 55.3865 78.1559 52.538 77.6806 49.9628L75.6141 38.7672C74.9688 35.2704 74.1293 31.5679 72.8107 28.2259C71.82 25.7151 71.4982 22.8559 71.1827 19.9736L71.1617 19.7819C70.8561 16.9864 70.5393 14.1671 69.5664 11.7618Z" fill="white"/>
</g>
</g>
</svg>
